<svg width="36" height="36" viewBox="0 0 36 36" fill="none" xmlns="http://www.w3.org/2000/svg">
<path d="M2.64014 26.9751V8.36328C0.942911 11.067 0 14.2738 0 17.6692C0 21.0646 1.00577 24.2714 2.64014 26.9751Z" fill="#B29F6C"/>
<path d="M17.6655 35.2742C21.2486 35.2742 24.5801 34.2053 27.346 32.3818H7.98511C10.7509 34.2053 14.0825 35.2742 17.6655 35.2742Z" fill="#B29F6C"/>
<path d="M8.86013 2.38794C7.60293 3.14247 6.40859 3.95989 5.40283 4.96594V29.6141H30.5468C31.4897 28.5451 32.3697 27.4133 33.0612 26.1558H8.86013V2.38794Z" fill="#B29F6C"/>
<path d="M26.1559 17.6688C26.1559 19.9325 25.2759 21.9445 23.8929 23.4536H28.1674C29.1103 21.693 29.6132 19.7438 29.6132 17.7317C29.6132 11.1295 24.2072 5.72205 17.6069 5.72205C15.4697 5.72205 13.4582 6.28795 11.6353 7.29399V11.6326C13.1439 10.0606 15.2811 9.11745 17.6698 9.11745C22.3214 9.18033 26.1559 12.953 26.1559 17.6688Z" fill="#B29F6C"/>
<path d="M17.6698 0C15.5326 0 13.5211 0.377265 11.6353 1.06892V4.59008C13.5211 3.70979 15.5326 3.26965 17.6069 3.26965C25.5273 3.26965 32.0019 9.74607 32.0019 17.6687C32.0019 19.6808 31.6247 21.63 30.8075 23.3906H34.2648C34.8934 21.5671 35.2706 19.6179 35.2706 17.6058C35.2706 7.92261 27.3502 0 17.6698 0Z" fill="#B29F6C"/>
</svg>
