<svg width="148" height="24" viewBox="0 0 148 24" fill="none" xmlns="http://www.w3.org/2000/svg">
<path d="M63.7123 6.96802H62.0952V17.0284H68.6424V15.687H63.7123V6.96802Z" fill="#B29F6C"/>
<path d="M79.5677 8.03456C79.1339 7.64004 78.6211 7.36387 77.9901 7.16661C77.359 6.96935 76.6885 6.89044 75.8603 6.89044C75.0714 6.89044 74.3615 6.96935 73.7699 7.16661C73.1783 7.36387 72.6261 7.64004 72.1922 8.03456C71.7978 8.42909 71.4823 8.90252 71.2456 9.45485C71.009 10.0072 70.9301 10.6779 70.9301 11.4669V12.5716C70.9301 13.4395 71.0484 14.1497 71.3245 14.7415C71.6006 15.3333 71.9556 15.8067 72.4683 16.2012C72.9022 16.5168 73.4149 16.7536 73.9671 16.9114C74.5192 17.0692 75.1897 17.1481 75.8997 17.1481C76.6096 17.1481 77.2801 17.0692 77.8323 16.9114C78.3845 16.7536 78.8972 16.5168 79.3311 16.2012C79.8438 15.8067 80.1988 15.3333 80.4749 14.7415C80.7115 14.1497 80.8693 13.4395 80.8693 12.5716V11.4669C80.8693 10.6779 80.751 10.0072 80.5537 9.45485C80.3171 8.90252 80.0016 8.42909 79.5677 8.03456ZM79.2128 12.5716C79.2128 13.1634 79.1339 13.6368 78.9761 14.0313C78.8183 14.4259 78.5817 14.7809 78.3056 15.0177C78.0295 15.2544 77.6745 15.4516 77.2801 15.57C76.8857 15.6883 76.4124 15.7278 75.8997 15.7278C75.387 15.7278 74.9137 15.6883 74.5192 15.57C74.1248 15.4516 73.7699 15.2544 73.4938 15.0177C73.1783 14.7415 72.981 14.4259 72.8233 14.0313C72.6655 13.6368 72.5866 13.1634 72.5866 12.5716V11.4669C72.5866 10.9146 72.6655 10.4412 72.7838 10.0466C72.9416 9.65211 73.1388 9.33649 73.4149 9.06033C73.691 8.78416 74.046 8.5869 74.4798 8.46854C74.9137 8.35018 75.387 8.27128 75.9391 8.27128C76.4913 8.27128 76.9646 8.35018 77.359 8.46854C77.7534 8.5869 78.1084 8.78416 78.3845 9.06033C78.6606 9.33649 78.8972 9.65211 79.0155 10.0466C79.1339 10.4412 79.2128 10.9146 79.2128 11.4669V12.5716Z" fill="#B29F6C"/>
<path d="M40.1652 8.03456C39.7313 7.64004 39.2186 7.36387 38.5875 7.16661C37.9565 6.96935 37.286 6.89044 36.4577 6.89044C35.6294 6.89044 34.9589 6.96935 34.3673 7.16661C33.7757 7.36387 33.2235 7.64004 32.7897 8.03456C32.3953 8.42909 32.0797 8.90252 31.8431 9.45485C31.6064 10.0072 31.5276 10.6779 31.5276 11.4669V12.5716C31.5276 13.4395 31.6459 14.1497 31.922 14.7415C32.1981 15.3333 32.553 15.8067 33.0658 16.2012C33.4996 16.5168 34.0124 16.7536 34.5645 16.9114C35.1167 17.0692 35.7872 17.1481 36.4971 17.1481C37.2071 17.1481 37.8776 17.0692 38.4298 16.9114C38.9819 16.7536 39.4947 16.5168 39.9285 16.2012C40.4413 15.8067 40.7962 15.3333 41.0723 14.7415C41.309 14.1497 41.4667 13.4395 41.4667 12.5716V11.4669C41.4667 10.6779 41.3484 10.0072 41.1512 9.45485C40.9146 8.90252 40.599 8.42909 40.1652 8.03456ZM39.8102 12.5716C39.8102 13.1634 39.7313 13.6368 39.5736 14.0313C39.4158 14.4259 39.1792 14.7809 38.9031 15.0177C38.627 15.2544 38.272 15.4516 37.8776 15.57C37.4832 15.6883 37.0099 15.7278 36.4971 15.7278C35.9844 15.7278 35.5111 15.6883 35.1167 15.57C34.7223 15.4516 34.3673 15.2544 34.0912 15.0177C33.7757 14.7415 33.5785 14.4259 33.4207 14.0313C33.263 13.6368 33.1841 13.1634 33.1841 12.5716V11.4669C33.1841 10.9146 33.263 10.4412 33.3813 10.0466C33.5391 9.65211 33.7363 9.33649 34.0124 9.06033C34.2884 8.78416 34.6434 8.5869 35.0773 8.46854C35.5111 8.35018 35.9844 8.27128 36.5366 8.27128C37.0888 8.27128 37.5621 8.35018 37.9565 8.46854C38.3509 8.5869 38.7059 8.78416 38.982 9.06033C39.258 9.33649 39.4947 9.65211 39.613 10.0466C39.7313 10.4412 39.8102 10.9146 39.8102 11.4669V12.5716Z" fill="#B29F6C"/>
<path d="M51.9214 12.0574C51.9214 12.4519 51.9214 12.8859 51.9214 13.3199C51.9214 13.7538 51.9214 14.1878 51.9608 14.5823H51.9214C51.7636 14.3456 51.6059 14.1484 51.4481 13.9116C51.2903 13.6749 51.1326 13.4777 50.9748 13.241C50.817 13.0042 50.6593 12.807 50.5015 12.5703C50.3437 12.3335 50.186 12.1363 50.0282 11.939L46.2813 6.96802H44.8614V17.0284H46.3996V11.939C46.3996 11.5445 46.3996 11.15 46.3996 10.716C46.3996 10.282 46.3996 9.84804 46.3996 9.41407H46.4391C46.5968 9.65078 46.794 9.92695 46.9518 10.2031C47.149 10.4793 47.3068 10.7555 47.5434 11.0316C47.6617 11.1894 47.7406 11.3078 47.859 11.4656C47.9773 11.6234 48.0956 11.7812 48.2139 11.8996L52.0792 17.0284H53.499V6.96802H51.9608V12.0574H51.9214Z" fill="#B29F6C"/>
<path d="M85.7191 9.96703C85.8769 9.5725 86.0741 9.25688 86.3502 8.98072C86.6263 8.744 86.9418 8.54674 87.3362 8.42838C87.7306 8.31002 88.2039 8.23112 88.6772 8.23112C88.9927 8.23112 89.2688 8.27057 89.5449 8.31003C89.821 8.34948 90.0971 8.42838 90.3732 8.54674C90.6098 8.62564 90.8859 8.744 91.162 8.90181C91.4381 9.05962 91.7142 9.21743 91.9508 9.45415L92.8185 8.34948C92.5425 8.11276 92.2269 7.87605 91.9114 7.67878C91.5959 7.48152 91.2803 7.32371 90.9254 7.20536C90.5704 7.087 90.2154 6.96864 89.821 6.92919C89.4266 6.88974 89.0322 6.85028 88.5983 6.85028C87.8884 6.85028 87.2179 6.92919 86.6263 7.12645C86.0347 7.32372 85.5219 7.59988 85.1275 7.99441C84.6937 8.38893 84.3781 8.86236 84.1415 9.41469C83.9048 9.96702 83.7865 10.6377 83.7865 11.4268V12.5709C83.7865 13.3599 83.9048 14.0306 84.1415 14.583C84.3781 15.1353 84.6937 15.6087 85.1275 15.9638C85.5219 16.3583 86.0347 16.6345 86.6263 16.8318C87.2179 17.029 87.8884 17.1079 88.5983 17.1079C88.9927 17.1079 89.4266 17.0685 89.821 17.029C90.2154 16.9501 90.5704 16.8712 90.9254 16.7528C91.2803 16.6345 91.5959 16.4767 91.9114 16.2794C92.2269 16.0822 92.5424 15.8849 92.7791 15.6087L91.9114 14.5041C91.6353 14.7013 91.3592 14.8986 91.1226 15.0564C90.8465 15.2142 90.6098 15.3326 90.3338 15.4115C90.0577 15.5298 89.7816 15.6087 89.5055 15.6482C89.2294 15.6876 88.9139 15.7271 88.6378 15.7271C88.125 15.7271 87.6912 15.6482 87.2968 15.5298C86.9024 15.4115 86.5474 15.2142 86.3107 14.938C86.0347 14.7013 85.8374 14.3857 85.6797 13.9912C85.5219 13.5967 85.443 13.1232 85.443 12.5709V11.3873C85.5219 10.8744 85.6008 10.401 85.7191 9.96703Z" fill="#B29F6C"/>
<path d="M130.249 8.03456C129.815 7.64004 129.303 7.36387 128.672 7.16661C128.041 6.96935 127.37 6.89044 126.542 6.89044C125.714 6.89044 125.043 6.96935 124.451 7.16661C123.86 7.36387 123.308 7.64004 122.874 8.03456C122.479 8.42909 122.164 8.90252 121.927 9.45485C121.691 10.0072 121.612 10.6779 121.612 11.4669V12.5716C121.612 13.4395 121.73 14.1497 122.006 14.7415C122.282 15.3333 122.637 15.8067 123.15 16.2012C123.584 16.5168 124.096 16.7536 124.649 16.9114C125.201 17.0692 125.871 17.1481 126.581 17.1481C127.291 17.1481 127.962 17.0692 128.514 16.9114C129.066 16.7536 129.579 16.5168 130.013 16.2012C130.525 15.8067 130.88 15.3333 131.156 14.7415C131.393 14.1497 131.551 13.4395 131.551 12.5716V11.4669C131.551 10.6779 131.432 10.0072 131.235 9.45485C130.959 8.90252 130.683 8.42909 130.249 8.03456ZM129.894 12.5716C129.894 13.1634 129.815 13.6368 129.658 14.0313C129.5 14.4259 129.263 14.7809 128.987 15.0177C128.711 15.2544 128.356 15.4516 127.962 15.57C127.567 15.6883 127.094 15.7278 126.581 15.7278C126.068 15.7278 125.595 15.6883 125.201 15.57C124.806 15.4516 124.451 15.2544 124.175 15.0177C123.86 14.7415 123.663 14.4259 123.505 14.0313C123.347 13.6368 123.268 13.1634 123.268 12.5716V11.4669C123.268 10.9146 123.347 10.4412 123.465 10.0466C123.623 9.65211 123.82 9.33649 124.096 9.06033C124.373 8.78416 124.727 8.5869 125.161 8.46854C125.595 8.35018 126.068 8.27128 126.621 8.27128C127.173 8.27128 127.646 8.35018 128.041 8.46854C128.435 8.5869 128.79 8.78416 129.066 9.06033C129.342 9.33649 129.579 9.65211 129.697 10.0466C129.815 10.4412 129.894 10.9146 129.894 11.4669V12.5716Z" fill="#B29F6C"/>
<path d="M105.755 8.3094H108.832V17.0284H110.449V8.3094H113.525V6.96802H105.755V8.3094Z" fill="#B29F6C"/>
<path d="M142.003 12.0574C142.003 12.4519 142.003 12.8859 142.003 13.3199C142.003 13.7538 142.003 14.1878 142.043 14.5823H142.003C141.845 14.3456 141.688 14.1484 141.53 13.9117C141.372 13.6749 141.214 13.4777 141.057 13.241C140.899 13.0042 140.741 12.807 140.583 12.5703C140.426 12.3335 140.268 12.1363 140.11 11.939L136.363 6.96802H134.943V17.0284H136.481V11.939C136.481 11.5445 136.481 11.15 136.481 10.716C136.481 10.282 136.481 9.84805 136.481 9.41407H136.521C136.679 9.65078 136.876 9.92695 137.034 10.2031C137.231 10.4793 137.389 10.7555 137.625 11.0316C137.743 11.1894 137.822 11.3078 137.941 11.4656C138.059 11.6234 138.177 11.7812 138.296 11.8996L142.161 17.0284H143.581V6.96802H142.043V12.0574H142.003Z" fill="#B29F6C"/>
<path d="M118.181 6.96802H116.564V17.0284H118.181V6.96802Z" fill="#B29F6C"/>
<path d="M98.7359 6.96802C97.5526 10.2426 96.3694 13.596 95.1862 17.0284H96.8427C97.0399 16.4761 97.1976 15.9237 97.3949 15.3714C97.4737 15.1347 97.5526 14.898 97.6315 14.7007H102.207C102.246 14.8585 102.286 14.9769 102.364 15.1347C102.562 15.7659 102.798 16.3972 102.996 17.0678H104.652C103.548 13.8722 102.364 10.5187 101.102 7.00747H98.7359V6.96802ZM101.378 12.4125C101.497 12.6886 101.576 12.9648 101.694 13.241C101.694 13.2804 101.733 13.3199 101.733 13.3593H98.0654C98.1442 13.1226 98.2626 12.8464 98.3415 12.6097C98.4598 12.2546 98.5781 11.8996 98.6964 11.5445C98.7753 11.3078 98.8542 11.0711 98.9331 10.8738C99.012 10.6371 99.0908 10.4004 99.1697 10.2031C99.288 9.8875 99.4063 9.57188 99.4852 9.21681C99.6036 8.90119 99.7219 8.58557 99.8008 8.26995H99.9191C99.998 8.50666 100.077 8.74338 100.156 8.98009C100.235 9.21681 100.314 9.45353 100.392 9.69024C100.511 10.0059 100.59 10.282 100.708 10.5976C100.826 10.9133 100.905 11.2289 101.023 11.5445C101.181 11.8601 101.26 12.1363 101.378 12.4125Z" fill="#B29F6C"/>
<path d="M145.119 16.24H145.474V17.1474H145.632V16.24H145.948V16.0822H145.119V16.24Z" fill="#B29F6C"/>
<path d="M146.972 16.0822L146.656 16.9107L146.301 16.0822H146.104V17.1474H146.222V16.2794L146.617 17.1474H146.696L147.05 16.2794V17.1474H147.208V16.0822H146.972Z" fill="#B29F6C"/>
<path d="M2.45934 17.859V6.18103C1.39442 7.87749 0.802795 9.88956 0.802795 12.02C0.802795 14.1504 1.43386 16.1625 2.45934 17.859Z" fill="#B29F6C"/>
<path d="M11.8869 23.0662C14.1351 23.0662 16.2255 22.3955 17.9609 21.2513H5.81299C7.5484 22.3955 9.63878 23.0662 11.8869 23.0662Z" fill="#B29F6C"/>
<path d="M6.36198 2.43182C5.57316 2.90525 4.82378 3.41814 4.19272 4.04938V19.5147H19.9692C20.5608 18.844 21.113 18.1339 21.5468 17.3449H6.36198V2.43182Z" fill="#B29F6C"/>
<path d="M17.2144 12.0201C17.2144 13.4404 16.6622 14.7028 15.7945 15.6497H18.4765C19.0681 14.545 19.3837 13.322 19.3837 12.0595C19.3837 7.91702 15.9917 4.52411 11.8504 4.52411C10.5094 4.52411 9.24728 4.87918 8.10349 5.51042V8.23264C9.05007 7.24633 10.3911 6.65454 11.8898 6.65454C14.8085 6.69399 17.2144 9.06114 17.2144 12.0201Z" fill="#B29F6C"/>
<path d="M11.8898 0.933472C10.5488 0.933472 9.28672 1.17019 8.10349 1.60416V3.8135C9.28672 3.26116 10.5488 2.985 11.8504 2.985C16.82 2.985 20.8824 7.0486 20.8824 12.0196C20.8824 13.2821 20.6458 14.5051 20.133 15.6098H22.3023C22.6967 14.4657 22.9334 13.2426 22.9334 11.9802C22.9334 5.90448 17.9638 0.933472 11.8898 0.933472Z" fill="#B29F6C"/>
</svg>
